<svg width="34" height="34" viewBox="0 0 34 34" fill="none">
<circle cx="17" cy="17" r="16.25" stroke="#609966" stroke-width="1.5"/>
<path d="M10.798 17.8578L10.7979 17.8577C9.40069 16.4605 9.40069 14.1951 10.7979 12.7979C12.1952 11.4006 14.4605 11.4006 15.8578 12.7979L16.4695 13.4096L16.9998 13.9399L17.5302 13.4096L18.1419 12.7979C19.5391 11.4007 21.8045 11.4007 23.2017 12.7979C24.5989 14.1952 24.5989 16.4605 23.2017 17.8578L23.2017 17.8578L17.3601 23.7C17.36 23.7 17.36 23.7 17.36 23.7C17.1612 23.8988 16.839 23.8987 16.6402 23.7L12.6937 19.7535L12.6938 19.7535L12.6873 19.7472C12.6693 19.7296 12.6514 19.7119 12.6335 19.694C12.6335 19.694 12.6335 19.6939 12.6334 19.6939L10.798 17.8578Z" stroke="#609966" stroke-width="1.5"/>
</svg>
